<svg width="152" height="81" viewBox="0 0 152 81" fill="none" xmlns="http://www.w3.org/2000/svg">
<path fill-rule="evenodd" clip-rule="evenodd" d="M1.14493 79.9872C1.14493 79.9872 1.14476 79.9875 1.37958 80.1385C1.49736 80.3917 1.49754 80.3916 1.49754 80.3916L1.51163 80.3851L1.55477 80.3651L1.72462 80.2872C1.87399 80.2189 2.09429 80.1189 2.37748 79.9922C2.94386 79.7386 3.76171 79.3781 4.76668 78.9505C6.77691 78.0952 9.53442 76.9722 12.5248 75.9006C15.5163 74.8287 18.7352 73.8104 21.6694 73.1623C24.6144 72.5119 27.2328 72.2442 29.0433 72.6406L29.1627 72.0951C27.2256 71.671 24.5048 71.9643 21.549 72.6171C18.5825 73.2722 15.339 74.2991 12.3365 75.375C9.33289 76.4512 6.56487 77.5786 4.54806 78.4367C3.53951 78.8658 2.71847 79.2277 2.14934 79.4825C2.1363 79.4883 2.12339 79.4941 2.11062 79.4998C2.20376 79.3497 2.30864 79.1796 2.42406 78.9912C2.92953 78.1658 3.63737 76.9864 4.4475 75.5692C6.06714 72.7358 8.09831 68.9474 9.73812 65.1357C11.3739 61.3334 12.6363 57.4723 12.6882 54.5056C12.7143 53.0203 12.4379 51.7213 11.7143 50.7679C10.9826 49.804 9.82851 49.2384 8.20151 49.1557L8.17316 49.7134C9.67829 49.7899 10.6606 50.3033 11.2695 51.1055C11.8865 51.9184 12.1549 53.0728 12.1299 54.4958C12.08 57.3458 10.8574 61.121 9.22518 64.915C7.59699 68.6997 5.57712 72.4679 3.96273 75.292C3.15584 76.7036 2.45092 77.8781 1.94787 78.6995C1.69636 79.1102 1.49535 79.4326 1.35732 79.6521C1.28831 79.7619 1.23505 79.8459 1.1991 79.9024L1.15836 79.9663L1.14493 79.9872ZM1.37958 80.1385L1.49754 80.3916L0.623306 80.7983L1.14493 79.9872L1.37958 80.1385Z" fill="white"/>
<path fill-rule="evenodd" clip-rule="evenodd" d="M76.5605 16.8972C51.8425 28.3478 29.3822 45.1811 15.2016 65.3022L15.658 65.6239C29.7681 45.6028 52.1408 28.825 76.7952 17.4038C101.45 5.98258 128.359 -0.0697938 151.527 1.33391L151.56 0.776542C128.28 -0.633973 101.278 5.44646 76.5605 16.8972Z" fill="white"/>
</svg>
